<mxfile host="65bd71144e">
    <diagram id="tidMj5SfXZsGOlsUng-M" name="Page-1">
        <mxGraphModel dx="708" dy="836" grid="1" gridSize="10" guides="1" tooltips="1" connect="1" arrows="1" fold="1" page="1" pageScale="1" pageWidth="850" pageHeight="1100" background="#FAFAFA" math="0" shadow="0">
            <root>
                <mxCell id="0"/>
                <mxCell id="1" parent="0"/>
                <mxCell id="40" style="edgeStyle=none;html=1;labelBackgroundColor=none;strokeColor=#000000;strokeWidth=2;fontFamily=Comic Sans MS;fontSize=13;fontColor=#000000;fillColor=none;" parent="1" source="2" edge="1">
                    <mxGeometry relative="1" as="geometry">
                        <mxPoint x="272" y="290" as="targetPoint"/>
                        <Array as="points">
                            <mxPoint x="222" y="290"/>
                        </Array>
                    </mxGeometry>
                </mxCell>
                <mxCell id="2" value="BOT&lt;br&gt;WHATSAPP" style="rounded=1;whiteSpace=wrap;html=1;fontFamily=Comic Sans MS;fontColor=#000000;fillColor=none;strokeWidth=3;strokeColor=#0a0a0a;fontStyle=1" parent="1" vertex="1">
                    <mxGeometry x="62" y="260" width="120" height="60" as="geometry"/>
                </mxCell>
                <mxCell id="46" style="edgeStyle=none;html=1;exitX=1;exitY=0.5;exitDx=0;exitDy=0;labelBackgroundColor=none;strokeColor=#000000;strokeWidth=2;fontFamily=Comic Sans MS;fontSize=13;fontColor=#000000;fillColor=none;" parent="1" source="6" target="45" edge="1">
                    <mxGeometry relative="1" as="geometry"/>
                </mxCell>
                <mxCell id="6" value="AWS&lt;br&gt;DYNAMODB" style="rounded=1;whiteSpace=wrap;html=1;fontFamily=Comic Sans MS;fontStyle=1;fontColor=#000000;fillColor=none;strokeWidth=3;strokeColor=#080808;" parent="1" vertex="1">
                    <mxGeometry x="472" y="260" width="120" height="60" as="geometry"/>
                </mxCell>
                <mxCell id="43" style="edgeStyle=none;html=1;exitX=1;exitY=0.5;exitDx=0;exitDy=0;entryX=0;entryY=0.5;entryDx=0;entryDy=0;labelBackgroundColor=none;strokeColor=#000000;strokeWidth=2;fontFamily=Comic Sans MS;fontSize=13;fontColor=#000000;fillColor=none;" parent="1" source="5" target="6" edge="1">
                    <mxGeometry relative="1" as="geometry"/>
                </mxCell>
                <mxCell id="5" value="AWS&lt;br&gt;TEXTRACT" style="rounded=1;whiteSpace=wrap;html=1;fillColor=none;labelBackgroundColor=none;fontColor=#000000;labelBorderColor=none;strokeColor=#000000;strokeWidth=3;fontStyle=1;fontFamily=Comic Sans MS;" parent="1" vertex="1">
                    <mxGeometry x="267" y="260" width="120" height="60" as="geometry"/>
                </mxCell>
                <mxCell id="41" value="&lt;b&gt;ENVIA PARA O&lt;br&gt;TEXTRACT&lt;/b&gt;" style="text;html=1;align=center;verticalAlign=middle;resizable=0;points=[];autosize=1;strokeColor=none;fillColor=none;fontSize=13;fontFamily=Comic Sans MS;fontColor=#000000;" parent="1" vertex="1">
                    <mxGeometry x="157" y="330" width="120" height="40" as="geometry"/>
                </mxCell>
                <mxCell id="42" value="&lt;b&gt;GUARDA DADOS&lt;br&gt;&amp;nbsp;NO BANCO DE DADOS&lt;/b&gt;" style="text;html=1;align=center;verticalAlign=middle;resizable=0;points=[];autosize=1;strokeColor=none;fillColor=none;fontSize=13;fontFamily=Comic Sans MS;fontColor=#000000;" parent="1" vertex="1">
                    <mxGeometry x="347" y="330" width="180" height="40" as="geometry"/>
                </mxCell>
                <mxCell id="45" value="USUÁRIO" style="rounded=1;whiteSpace=wrap;html=1;fontFamily=Comic Sans MS;fontStyle=1;fontColor=#000000;fillColor=none;strokeWidth=3;strokeColor=#080808;" parent="1" vertex="1">
                    <mxGeometry x="662" y="260" width="120" height="60" as="geometry"/>
                </mxCell>
            </root>
        </mxGraphModel>
    </diagram>
</mxfile>